<svg width="474" height="471" viewBox="0 0 474 471" fill="none" xmlns="http://www.w3.org/2000/svg">
<circle cx="235.5" cy="235.5" r="225.5" fill="white" stroke="black" stroke-width="20"/>
<path d="M464 237.259C464 253.204 462.352 263.491 459.875 269.808C457.567 275.694 455.012 277.143 452.919 277.673C449.947 278.426 444.999 278.014 437.06 275.014C429.341 272.097 420.227 267.302 409.568 261.175C404.251 258.118 398.579 254.743 392.602 251.187C375.112 240.781 355.008 228.82 333.508 218.705C304.477 205.045 271.778 194.153 237 194.153C202.222 194.153 169.523 205.045 140.492 218.705C118.992 228.82 98.8879 240.781 81.3983 251.187C75.4212 254.743 69.7494 258.118 64.4318 261.175C53.7733 267.302 44.6593 272.097 36.9404 275.014C29.0014 278.014 24.0529 278.426 21.0807 277.673C18.9884 277.143 16.4328 275.694 14.125 269.808C11.6484 263.491 10 253.204 10 237.259C10 111.737 111.642 10 237 10C362.358 10 464 111.737 464 237.259Z" fill="#BF0000" stroke="black" stroke-width="20"/>
<circle cx="235.5" cy="235.5" r="105.5" fill="white" stroke="black" stroke-width="20"/>
<circle cx="235.5" cy="235.5" r="55.5" fill="white" stroke="black" stroke-width="10"/>
</svg>
